<svg width="60" height="40" viewBox="0 0 60 40" fill="none" xmlns="http://www.w3.org/2000/svg">
<path d="M59.0147 14.4089H57.7011C57.1581 14.4089 56.7144 14.899 56.7144 15.5007V34.4654C56.7144 35.0671 57.1561 35.5587 57.7011 35.5587H59.0147C59.557 35.5587 60 35.0679 60 34.4654V15.5C60 14.899 59.5577 14.4089 59.0147 14.4089Z" fill="#ffffff"/>
<path d="M0.985345 13.4856C0.442972 13.4856 0 13.9749 0 14.5774V35.3968C0 35.9978 0.442305 36.4894 0.985345 36.4894H3.66386C4.2069 36.4894 4.6492 35.9993 4.6492 35.3968V14.5833C4.6492 13.9823 4.20757 13.4915 3.66386 13.4915H0.985345V13.4856Z" fill="#ffffff"/>
<path d="M38.4378 39.8196C40.6353 38.8749 42.8195 37.9013 45.0123 36.9573C45.2078 36.8738 45.4353 36.845 45.6441 36.8391C47.2665 36.8317 48.889 36.8317 50.5061 36.8317C52.1866 36.8317 53.2667 35.6341 53.2667 33.7521V27.5936C53.2667 27.1523 53.5876 26.8034 53.9798 26.8034L54.6803 26.7834C55.2367 26.7834 55.2694 26.5447 55.2867 26.1181L55.3007 22.5425C55.3007 22.187 55.0412 21.8987 54.719 21.8987H53.9678C53.5689 21.8987 53.248 21.5416 53.248 21.1003L53.272 13.6334C53.2913 12.5276 52.8877 11.7654 52.1225 11.1556C50.809 10.1059 46.9383 7.06178 46.3059 6.61381C45.8709 6.29816 45.3966 6.17249 44.8662 6.17989L38.1903 6.17249C37.6212 6.17249 37.1609 5.66169 37.1609 5.03188V4.80124C37.1609 4.16477 37.6279 3.64658 38.203 3.64658H44.2538C44.8275 3.64658 45.2958 3.12912 45.2958 2.49191V1.15466C45.2958 0.518194 44.8282 0 44.2538 0H24.1646C23.5896 0 23.1226 0.517455 23.1226 1.15466V2.49191C23.1226 3.12838 23.5896 3.64658 24.1646 3.64658H30.7131C31.2882 3.64658 31.7559 4.16477 31.7559 4.80124V5.06736C31.7559 5.69717 31.2949 6.21463 30.7185 6.20724L24.1066 6.17989C22.8424 6.13775 21.8077 6.61381 20.847 7.38334C19.4447 8.50991 18.0684 9.67196 16.6915 10.834C16.3439 11.1275 15.9083 11.2886 15.4726 11.2812C14.1471 11.2665 12.8201 11.2665 11.4939 11.2812C9.84542 11.2953 8.77869 12.4707 8.76535 14.3047L8.78403 19.406C8.78403 19.8392 8.46781 20.1962 8.0702 20.1962H7.45178C6.69992 20.1962 6.09351 20.8682 6.09351 21.7013V29.7847C6.09351 30.617 6.69992 31.2883 7.45178 31.2883H8.05152C8.44312 31.2883 8.76468 31.6394 8.76468 32.0792C8.76468 33.2398 8.75801 35.4028 8.76468 36.6543C8.76468 37.8171 8.746 40 10.666 40H37.5979C37.8821 40.0014 38.1789 39.9386 38.4378 39.8196Z" fill="#ffffff"/>
</svg>
