<svg width="34" height="27" viewBox="0 0 34 27" fill="none" xmlns="http://www.w3.org/2000/svg">
<g>
<path d="M20.3544 0C16.6086 0 13.89 5.67758 13.89 13.5C13.89 22.0793 16.2461 27 20.3544 27C27.8784 27 34 20.9442 34 13.5C34 6.05579 27.8789 0 20.3544 0ZM20.3544 25.4952C17.2591 25.4952 15.411 21.0114 15.411 13.5C15.411 6.88543 17.6287 1.50479 20.3544 1.50479C27.0398 1.50479 32.479 6.88593 32.479 13.5C32.479 20.1141 27.0403 25.4952 20.3544 25.4952Z" fill="#ffffff"/>
<path d="M10.9838 1.62546H0.760514C0.340203 1.62546 0 1.96253 0 2.37786C0 2.79318 0.340203 3.13025 0.760514 3.13025H10.9838C11.4042 3.13025 11.7444 2.79318 11.7444 2.37786C11.7444 1.96253 11.4037 1.62546 10.9838 1.62546Z" fill="#ffffff"/>
<path d="M10.9838 9.0455H0.760514C0.340203 9.0455 0 9.38257 0 9.79789C0 10.2132 0.340203 10.5503 0.760514 10.5503H10.9838C11.4042 10.5503 11.7444 10.2132 11.7444 9.79789C11.7444 9.38257 11.4037 9.0455 10.9838 9.0455Z" fill="#ffffff"/>
<path d="M10.9838 16.4593H0.760514C0.340203 16.4593 0 16.7964 0 17.2117C0 17.627 0.340203 17.9641 0.760514 17.9641H10.9838C11.4042 17.9641 11.7444 17.627 11.7444 17.2117C11.7444 16.7964 11.4037 16.4593 10.9838 16.4593Z" fill="#ffffff"/>
<path d="M10.9838 23.8794H0.760514C0.340203 23.8794 0 24.2164 0 24.6318C0 25.0471 0.340203 25.3842 0.760514 25.3842H10.9838C11.4042 25.3842 11.7444 25.0471 11.7444 24.6318C11.7444 24.2164 11.4037 23.8794 10.9838 23.8794Z" fill="#ffffff"/>
<path d="M32.9561 14.0492C32.9561 20.4208 26.6151 26.0876 21.2948 26.0876C15.9746 26.0876 14.9572 20.4208 14.9572 14.0492C14.9572 7.67766 15.9746 0.756893 21.2948 0.756893C26.6151 0.756893 32.9561 7.67766 32.9561 14.0492Z" fill="#ffffff"/>
</g>
</svg>
