<svg width="19" height="27" viewBox="0 0 19 27" fill="#ffffff" xmlns="http://www.w3.org/2000/svg">
<g >
<path d="M9.50046 0C5.867 0 2.91101 2.96586 2.91101 6.61133V8.852H6.25735V6.61133C6.25735 4.8169 7.71226 3.35694 9.50052 3.35694C11.2892 3.35694 12.7448 4.8169 12.7448 6.61133V8.852H16.0907V6.61133C16.0907 2.96644 13.1344 0 9.50069 0H9.50046Z" fill="#ffffff"/>
<path d="M16.4298 9.85101H2.56953C1.15012 9.85101 0 11.0052 0 12.4293V21.8428C0 24.6905 2.30093 27 5.13952 27H13.8605C16.6984 27 19 24.6915 19 21.8428V12.4293C19 11.0054 17.8494 9.85101 16.4298 9.85101ZM11.409 21.6284C11.4771 21.9389 11.2755 22.1905 10.9596 22.1905H8.04193C7.72532 22.1905 7.5237 21.9389 7.5918 21.6284L8.41662 17.8686C7.78003 17.4936 7.3507 16.8018 7.3507 16.0074C7.3507 14.8163 8.31328 13.8506 9.50044 13.8506C10.6877 13.8506 11.6502 14.8163 11.6502 16.0074C11.6502 16.8016 11.2213 17.4934 10.5843 17.8686L11.409 21.6284Z" fill="#ffffff"/>
</g>
</svg>
